HIERARCHY
ROOT Hips
{
 OFFSET 0.000000 0.000000 0.000000
 CHANNELS 6 Xposition Yposition Zposition Yrotation Xrotation Zrotation
 JOINT Chest
 {
  OFFSET 0.000000 13.173100 -0.061900
  CHANNELS 3 Yrotation Xrotation Zrotation
  JOINT Chest2
  {
   OFFSET 0.000000 8.040800 0.126200
   CHANNELS 3 Yrotation Xrotation Zrotation
   JOINT Chest3
   {
    OFFSET 0.000000 7.994400 0.000000
    CHANNELS 3 Yrotation Xrotation Zrotation
    JOINT Chest4
    {
     OFFSET 0.000000 7.986200 0.000000
     CHANNELS 3 Yrotation Xrotation Zrotation
     JOINT Neck
     {
      OFFSET 0.000000 12.259400 0.000000
      CHANNELS 3 Yrotation Xrotation Zrotation
      JOINT Head
      {
       OFFSET 0.000000 7.518700 0.267100
       CHANNELS 3 Yrotation Xrotation Zrotation
       End Site
       {
        OFFSET 0.000000 13.617700 0.141000
       }
      }
     }
     JOINT RightCollar
     {
      OFFSET -2.983800 8.314300 0.000000
      CHANNELS 3 Yrotation Xrotation Zrotation
      JOINT RightShoulder
      {
       OFFSET -16.133400 0.000000 0.000000
       CHANNELS 3 Yrotation Xrotation Zrotation
       JOINT RightElbow
       {
        OFFSET 0.000000 -29.822100 0.000000
        CHANNELS 3 Yrotation Xrotation Zrotation
        JOINT RightWrist
        {
         OFFSET 0.000000 -24.437700 0.010900
         CHANNELS 3 Yrotation Xrotation Zrotation
         End Site
         {
          OFFSET 0.000000 -18.312300 0.000000
         }
        }
       }
      }
     }
     JOINT LeftCollar
     {
      OFFSET 2.983800 8.314300 0.000000
      CHANNELS 3 Yrotation Xrotation Zrotation
      JOINT LeftShoulder
      {
       OFFSET 16.133400 0.000000 0.000000
       CHANNELS 3 Yrotation Xrotation Zrotation
       JOINT LeftElbow
       {
        OFFSET 0.000000 -29.822100 0.000000
        CHANNELS 3 Yrotation Xrotation Zrotation
        JOINT LeftWrist
        {
         OFFSET 0.000000 -24.437700 0.010900
         CHANNELS 3 Yrotation Xrotation Zrotation
         End Site
         {
          OFFSET 0.000000 -18.312300 0.000000
         }
        }
       }
      }
     }
    }
   }
  }
 }
 JOINT RightHip
 {
  OFFSET -11.206700 0.306200 0.030900
  CHANNELS 3 Yrotation Xrotation Zrotation
  JOINT RightKnee
  {
   OFFSET 0.000000 -57.334900 0.009400
   CHANNELS 3 Yrotation Xrotation Zrotation
   JOINT RightAnkle
   {
    OFFSET 0.000000 -43.376200 0.036600
    CHANNELS 3 Yrotation Xrotation Zrotation
    JOINT RightToe
    {
     OFFSET 0.000000 -10.035500 18.363100
     CHANNELS 3 Yrotation Xrotation Zrotation
     End Site
     {
      OFFSET 0.000000 -1.618500 7.239000
     }
    }
   }
  }
 }
 JOINT LeftHip
 {
  OFFSET 11.206700 0.306200 0.030900
  CHANNELS 3 Yrotation Xrotation Zrotation
  JOINT LeftKnee
  {
   OFFSET 0.000000 -57.334900 0.009400
   CHANNELS 3 Yrotation Xrotation Zrotation
   JOINT LeftAnkle
   {
    OFFSET 0.000000 -43.376200 0.036600
    CHANNELS 3 Yrotation Xrotation Zrotation
    JOINT LeftToe
    {
     OFFSET 0.000000 -10.035500 18.363100
     CHANNELS 3 Yrotation Xrotation Zrotation
     End Site
     {
      OFFSET 0.000000 -1.618500 7.239000
     }
    }
   }
  }
 }
}
MOTION
Frames: 16
Frame Time: 0.008333
-96.555955 65.218088 84.919610 172.007472 -36.415148 -2.141351 2.035782 20.181504 1.630448 0.237277 2.533187 0.304863 0.397609 4.226630 0.536344 1.937659 17.332654 2.433211 2.512529 16.933113 0.290084 4.571363 -4.295920 -0.302875 -3.833318 1.069617 -4.839319 -5.887029 -4.432206 2.905856 -134.729163 -79.662966 152.456898 20.092914 18.815344 46.558569 -3.159915 2.280950 0.177509 16.251232 -4.566613 3.329561 107.729571 -63.303644 -136.648520 -24.380339 23.615979 -53.996547 -4.911854 -44.391897 6.923816 -93.044085 84.416522 -87.824971 -0.480193 -8.189069 -5.027425 0.344054 -0.542338 0.120827 -5.001265 -41.207943 5.200226 73.273535 82.927765 63.185642 -6.255446 -10.958457 6.913257 0.488096 1.165924 0.347109
-96.554111 65.208152 84.927347 171.997245 -36.430402 -2.116410 2.033765 20.228744 1.621252 0.243253 2.540587 0.307728 0.396569 4.212125 0.528553 1.937704 17.341799 2.430507 2.519639 16.930499 0.297880 4.585423 -4.356993 -0.308028 -3.802679 0.958112 -4.910275 -5.912015 -4.414048 2.646307 -133.239849 -79.143198 151.293820 20.584420 18.625531 48.360180 -3.221346 2.202709 0.209495 16.201129 -4.677584 3.603852 105.448858 -62.407249 -135.093980 -24.072664 23.687480 -54.575533 -4.766786 -44.400351 6.826487 -93.117507 84.423539 -87.810249 -0.527277 -8.125144 -5.043502 0.376560 -0.600804 0.151332 -4.930545 -41.194983 5.160438 73.203879 82.916936 63.138767 -6.281850 -10.928664 6.915314 0.490824 1.134646 0.323233
-96.552515 65.194032 84.938591 171.983548 -36.422367 -2.083097 2.031904 20.236611 1.597911 0.241342 2.563223 0.314697 0.397005 4.221319 0.527577 1.936550 17.358723 2.423886 2.532720 16.921875 0.308536 4.603112 -4.439099 -0.326986 -3.771864 0.826514 -4.964375 -5.931297 -4.407938 2.358528 -131.843539 -78.599432 150.236355 20.976932 18.426946 50.038963 -3.275122 2.087369 0.235862 16.146502 -4.787142 3.867199 103.321946 -61.503287 -133.677470 -23.782530 23.771527 -55.179051 -4.674796 -44.425631 6.756977 -93.099629 84.471482 -87.734928 -0.600631 -8.077799 -5.076137 0.435031 -0.640752 0.191809 -4.858125 -41.205884 5.124237 73.133875 82.896414 63.076532 -6.322434 -10.894557 6.934000 0.500750 1.113312 0.312193
-96.548391 65.179234 84.949214 171.973607 -36.415290 -2.058716 2.028992 20.244593 1.580316 0.232000 2.596691 0.320085 0.390614 4.247692 0.529908 1.941274 17.340280 2.413033 2.542245 16.886802 0.306558 4.616775 -4.471914 -0.337404 -3.732174 0.698719 -5.017083 -5.954018 -4.393588 2.058610 -130.563989 -78.024583 149.313107 21.300397 18.227947 51.584939 -3.316989 1.976763 0.254728 16.088798 -4.897127 4.119730 101.371703 -60.608019 -132.417590 -23.527322 23.842142 -55.822146 -4.603455 -44.449834 6.705406 -93.098830 84.519526 -87.685023 -0.673065 -8.027176 -5.103264 0.480604 -0.682273 0.217773 -4.800630 -41.217996 5.095236 73.091643 82.881325 63.038251 -6.323705 -10.865152 6.939716 0.487438 1.091291 0.310190
-96.544325 65.161878 84.961552 171.972025 -36.394030 -2.040429 2.012917 20.247785 1.560910 0.236492 2.587105 0.318452 0.390705 4.249262 0.530363 1.928729 17.371896 2.414683 2.556603 16.851870 0.301181 4.630910 -4.496556 -0.346142 -3.685634 0.578485 -5.069060 -5.982611 -4.375612 1.751057 -129.423709 -77.418386 148.544374 21.582331 18.019361 52.994872 -3.347869 1.871817 0.267594 16.031603 -5.006524 4.360167 99.593983 -59.727009 -131.311902 -23.327835 23.884975 -56.522884 -4.564175 -44.486088 6.666225 -93.081277 84.559087 -87.630489 -0.720079 -7.978972 -5.131075 0.498622 -0.718661 0.230968 -4.729827 -41.245952 5.074513 73.053943 82.864407 63.000332 -6.367997 -10.829062 6.971249 0.488604 1.069795 0.306896
-96.540813 65.147196 84.968919 171.967609 -36.393927 -2.019562 1.994190 20.280155 1.540620 0.244348 2.577065 0.318232 0.393387 4.241538 0.528336 1.902976 17.414928 2.422858 2.576901 16.799537 0.284085 4.677862 -4.579100 -0.366030 -3.625994 0.449306 -5.130583 -6.017763 -4.357579 1.442393 -128.413926 -76.788505 147.918280 21.833613 17.786230 54.269463 -3.364868 1.756696 0.267750 15.982277 -5.115911 4.586578 97.988934 -58.863711 -130.363129 -23.182066 23.904162 -57.285295 -4.554491 -44.494034 6.639618 -93.090475 84.590394 -87.630995 -0.730721 -7.945206 -5.151165 0.494890 -0.746518 0.236394 -4.702523 -41.246756 5.055874 73.027248 82.851669 62.962103 -6.364900 -10.814905 6.988783 0.466258 1.060151 0.291221
-96.535582 65.132623 84.975916 171.969132 -36.391756 -2.017689 1.981241 20.291151 1.534266 0.233048 2.594478 0.319632 0.403584 4.231349 0.527552 1.886787 17.423357 2.423344 2.591998 16.768584 0.278049 4.695215 -4.597725 -0.379588 -3.570011 0.350951 -5.187436 -6.053557 -4.340133 1.138080 -127.475677 -76.137018 147.373848 22.056691 17.525448 55.415644 -3.387140 1.671338 0.270260 15.946894 -5.225711 4.799693 96.541605 -58.020085 -129.554669 -23.072176 23.905952 -58.094086 -4.604184 -44.491750 6.650969 -93.020257 84.617506 -87.568725 -0.717162 -7.925425 -5.180319 0.488524 -0.761248 0.245827 -4.676498 -41.252987 5.061340 72.981595 82.859312 62.914224 -6.384317 -10.793956 7.006741 0.464949 1.046394 0.288798
-96.531413 65.118033 84.982795 171.965763 -36.383908 -2.019313 1.972621 20.296215 1.532889 0.234522 2.591639 0.319824 0.401278 4.237893 0.529974 1.879086 17.421308 2.420023 2.601809 16.749572 0.275628 4.722795 -4.661562 -0.389341 -3.526111 0.269670 -5.242741 -6.080301 -4.326634 0.841750 -126.548941 -75.464594 146.845462 22.246391 17.238533 56.447748 -3.419726 1.600454 0.272634 15.932396 -5.331741 4.999234 95.226150 -57.195245 -128.865664 -22.984489 23.896355 -58.930988 -4.690189 -44.485618 6.684412 -92.865971 84.634568 -87.438156 -0.680699 -7.919322 -5.213848 0.464976 -0.761869 0.243206 -4.656767 -41.261962 5.080116 72.914206 82.870995 62.842262 -6.409271 -10.780069 7.019653 0.468425 1.039585 0.292181
-96.530394 65.105227 84.987180 171.969148 -36.381101 -2.022468 1.957949 20.307438 1.528368 0.242507 2.581191 0.320743 0.372021 4.263944 0.527336 1.905491 17.396765 2.419408 2.605145 16.743179 0.275085 4.743106 -4.736310 -0.389451 -3.502091 0.199698 -5.295930 -6.096154 -4.322632 0.555857 -125.601801 -74.775892 146.293197 22.387348 16.934960 57.374544 -3.468851 1.539933 0.275048 15.944984 -5.431558 5.184255 94.019298 -56.389181 -128.277204 -22.910599 23.874445 -59.781347 -4.743315 -44.478189 6.698908 -92.780439 84.623064 -87.352298 -0.663835 -7.915905 -5.248940 0.471822 -0.766763 0.248717 -4.622706 -41.262714 5.087658 72.792188 82.887930 62.726920 -6.446952 -10.773576 7.026970 0.496893 1.038324 0.292008
-96.531282 65.090499 84.994737 171.958923 -36.355033 -2.023874 1.955174 20.294599 1.529349 0.243051 2.583030 0.321304 0.371369 4.258953 0.525383 1.892914 17.403955 2.415372 2.618351 16.715390 0.275791 4.763361 -4.773853 -0.392161 -3.464904 0.120000 -5.349662 -6.109185 -4.335579 0.282093 -124.578906 -74.075347 145.663756 22.472240 16.632751 58.197954 -3.505608 1.468237 0.273719 15.979545 -5.525049 5.354959 92.919490 -55.602767 -127.779777 -22.847698 23.836708 -60.637642 -4.884501 -44.480252 6.751381 -92.591481 84.579556 -87.198405 -0.550299 -7.924685 -5.298626 0.448685 -0.755257 0.235743 -4.612064 -41.287902 5.103175 72.740618 82.887947 62.667304 -6.438241 -10.772286 7.033107 0.481132 1.040385 0.288833
-96.535486 65.078314 84.999155 171.951022 -36.338307 -2.021791 1.947657 20.291561 1.525470 0.227263 2.595768 0.317408 0.396701 4.235873 0.527871 1.840555 17.428767 2.398169 2.659247 16.674085 0.278878 4.780690 -4.774571 -0.397075 -3.400117 0.035355 -5.399307 -6.127613 -4.371742 0.020503 -123.411153 -73.360411 144.897849 22.506713 16.343215 58.929482 -3.517270 1.388387 0.272218 16.025486 -5.610933 5.509840 91.944953 -54.840478 -127.384838 -22.794145 23.786531 -61.498384 -5.015567 -44.472559 6.794857 -92.434864 84.551901 -87.089581 -0.449976 -7.940967 -5.318918 0.414045 -0.740868 0.210455 -4.581826 -41.303864 5.107058 72.655788 82.897622 62.589023 -6.448882 -10.767296 7.022447 0.482426 1.038698 0.303576
-96.542082 65.068120 85.001280 171.949665 -36.327560 -2.020720 1.940664 20.288128 1.521888 0.226589 2.595706 0.316862 0.389064 4.242210 0.526079 1.825222 17.429675 2.388746 2.676530 16.645388 0.284183 4.801519 -4.828957 -0.392589 -3.366463 -0.033787 -5.447365 -6.151571 -4.429222 -0.233541 -122.075694 -72.618105 143.980311 22.496094 16.070492 59.587873 -3.556619 1.322942 0.265794 16.072381 -5.688679 5.647179 91.098222 -54.108598 -127.093545 -22.745313 23.726540 -62.359637 -5.104156 -44.465279 6.813667 -92.332945 84.537766 -87.016055 -0.382178 -7.949834 -5.342888 0.383819 -0.736601 0.202727 -4.518367 -41.314198 5.085294 72.556513 82.901038 62.518325 -6.472558 -10.761194 7.033885 0.486576 1.037478 0.305960
-96.551672 65.058130 85.003165 171.945951 -36.311866 -2.010700 1.931369 20.280517 1.509626 0.225837 2.595528 0.316196 0.377600 4.248866 0.523464 1.811914 17.428154 2.378340 2.675088 16.603410 0.298777 4.844826 -4.865787 -0.397775 -3.334954 -0.086585 -5.481220 -6.179994 -4.516214 -0.493737 -120.603402 -71.836369 142.938566 22.442711 15.822039 60.191433 -3.593997 1.259743 0.256054 16.115725 -5.756245 5.767795 90.366322 -53.406715 -126.892496 -22.691986 23.664378 -63.207901 -5.164374 -44.466084 6.811583 -92.243077 84.534799 -86.941539 -0.339786 -7.962394 -5.370686 0.378848 -0.728518 0.199095 -4.488086 -41.328043 5.076119 72.523544 82.892279 62.484928 -6.487952 -10.752572 7.050299 0.469279 1.033278 0.297969
-96.560510 65.048338 85.005188 171.938491 -36.292624 -2.003631 1.902037 20.291001 1.487243 0.239823 2.582364 0.320221 0.354018 4.256101 0.514259 1.830698 17.412596 2.376482 2.691705 16.589492 0.304150 4.862592 -4.924811 -0.384088 -3.311176 -0.106673 -5.490649 -6.219685 -4.642248 -0.769003 -119.022709 -71.012603 141.795993 22.348894 15.603991 60.750607 -3.604672 1.227274 0.251832 16.136877 -5.786997 5.824146 89.779333 -52.759601 -126.848538 -22.625236 23.614591 -64.009842 -5.205008 -44.470233 6.811417 -92.126456 84.540797 -86.831023 -0.334581 -7.982903 -5.375881 0.393144 -0.713345 0.181853 -4.453755 -41.346560 5.069626 72.464906 82.894680 62.440510 -6.473303 -10.751360 7.052415 0.454824 1.028819 0.278228
-96.560133 65.041092 85.005389 171.896066 -36.288566 -2.012693 1.936485 20.291996 1.514216 0.234051 2.587980 0.319897 0.361835 4.246512 0.514653 1.833376 17.411415 2.376362 2.691613 16.580223 0.308339 4.896122 -5.016556 -0.335610 -3.316590 -0.164080 -5.538074 -6.262268 -4.730162 -1.005124 -117.372179 -70.148963 140.594436 22.214850 15.416289 61.271352 -3.633028 1.198890 0.246254 16.141669 -5.890496 5.925434 89.142715 -52.061057 -126.717441 -22.545416 23.581119 -64.736881 -5.228809 -44.462814 6.855184 -92.048580 84.554853 -86.761807 -0.295925 -7.991090 -5.368503 0.338023 -0.709361 0.170448 -4.415429 -41.348547 5.112570 72.389712 82.902239 62.387757 -6.408862 -10.736553 7.066530 0.385219 1.006676 0.243983
-96.568046 65.032160 85.005550 171.874539 -36.273164 -1.993896 1.946824 20.278080 1.503782 0.220983 2.591274 0.312957 0.369453 4.242407 0.517902 1.812174 17.407779 2.365117 2.693286 16.551659 0.332784 4.942208 -5.017504 -0.324441 -3.313584 -0.247323 -5.610074 -6.309479 -4.789810 -1.206611 -115.717860 -69.254524 139.401745 22.037871 15.253087 61.761572 -3.741281 1.107894 0.215681 16.247586 -5.934070 6.061779 88.536540 -51.357910 -126.620436 -22.448815 23.558502 -65.381922 -5.213478 -44.475371 6.840022 -91.992250 84.551841 -86.692725 -0.314051 -7.994006 -5.382890 0.367940 -0.709539 0.175745 -4.380385 -41.361623 5.119933 72.475761 82.886354 62.474719 -6.371257 -10.745282 7.096419 0.310747 1.001911 0.199164
